<svg width="164" height="44" viewBox="0 0 164 44" fill="none" xmlns="http://www.w3.org/2000/svg">
<path fill-rule="evenodd" clip-rule="evenodd" d="M28.4957 3.50035C27.4183 3.64712 26.3666 3.83793 25.2819 3.92233C23.6109 4.05076 23.3361 4.19754 22.0425 4.32597C20.8589 4.43972 19.8109 4.46173 18.6859 4.65988C17.5591 4.80785 16.4251 4.8936 15.2889 4.91674C14.1492 4.94977 13.0902 5.10755 11.9066 5.13324C11.3062 5.09136 10.703 5.11351 10.1073 5.19929C9.21319 5.4378 9.59796 5.47816 8.66352 5.29836C8.11385 5.19195 6.05441 5.58091 5.36549 5.6653C4.11591 5.81575 3.07153 5.64329 1.90623 5.73502C1.59841 5.75704 -0.548973 6.60834 0.143613 7.30553C1.08172 8.24857 8.01491 9.03016 9.41108 9.06319C11.804 9.11823 14.3728 9.11456 16.7693 9.06319C18.0996 9.0375 17.7221 9.11823 18.2351 11.3015C18.499 12.4427 18.4294 13.4775 18.422 14.7471C18.4037 19.5724 18.2864 24.5738 18.5649 29.267C18.6016 29.8614 18.6382 30.4779 18.6639 31.032C18.6895 31.6558 18.8324 32.1328 18.8361 32.7309C18.8361 33.0208 18.3744 35.0573 18.2974 35.894C18.2022 36.9508 18.1252 38.213 17.975 39.2258C17.8913 39.7827 17.8375 40.3437 17.8137 40.9064C17.7807 41.6109 17.7075 41.9742 18.1802 42.3742C18.7372 42.8549 20.7746 42.4879 21.3756 42.2788C22.2272 41.9751 22.9473 41.385 23.413 40.6092C23.7795 40.0661 23.8455 40.0918 23.8381 39.2038C23.8381 38.2497 23.8968 36.5361 23.6586 35.6995C23.5633 35.3619 23.2042 34.6317 23.4534 34.3198C23.6036 34.129 24.1496 34.0262 23.6036 33.1089C22.6325 31.4797 22.7681 30.5733 22.7718 28.4487C22.7718 25.9902 22.7718 23.5354 22.7718 21.0769C22.7718 19.6348 22.8634 19.1101 24.4354 19.1394C25.4508 19.173 26.4429 19.4525 27.3267 19.954C28.2905 20.5742 27.7921 20.6879 28.536 22.4162C28.8768 23.2088 28.8108 23.3629 29.3055 24.383L32.0942 29.8431C33.9445 32.8018 36.0828 35.5698 38.4777 38.1066C39.621 39.3359 40.8889 40.4918 42.2155 41.732C42.8517 42.3293 43.521 42.8904 44.2199 43.4126C44.5864 43.6878 45.268 43.7465 45.5611 43.3392C45.737 43.0934 45.7627 42.0072 45.7297 41.6329C45.6271 40.5615 45.4182 39.5561 44.7403 38.9102C43.8498 38.0553 44.154 38.8699 42.7065 37.2627C41.2225 35.6866 39.851 34.008 38.6023 32.2392L36.3706 28.9368C35.8723 27.946 34.8609 26.3095 34.4285 25.3371C34.2746 24.9885 33.7908 24.2362 33.527 23.528C33.4392 23.3072 33.3363 23.0926 33.2192 22.8859C33.0983 22.6547 33.0763 22.4712 32.9773 22.2364C32.8784 22.0016 32.7721 21.8401 32.6805 21.5832C32.4863 21.0585 32.3141 20.809 32.1675 20.2549C32.0319 19.8072 31.6911 19.3045 32.0575 18.8899C32.5742 18.3101 33.3035 17.8478 33.9191 17.1469C35.6341 15.1838 35.8136 15.2939 36.9936 12.8647C37.7265 11.3566 37.1219 8.36233 36.0372 6.93492C34.8942 5.52826 33.3499 4.50418 31.6105 3.99939C31.3686 3.92233 31.1304 3.90398 30.8776 3.83793C30.2693 3.66914 29.9835 3.28385 28.5067 3.47099M22.7864 9.709C22.7864 7.97704 23.1529 7.95502 24.7909 7.96236C25.9599 7.96236 29.8442 7.83026 30.3719 8.10914C30.6955 8.31816 31.0029 8.55121 31.2917 8.80633C31.6581 9.15125 31.7204 9.30904 31.7204 10.0209V12.4537C31.7204 13.7637 31.8487 13.7747 31.0938 14.4976C30.7394 14.8229 30.3379 15.0926 29.9028 15.2975C28.8035 15.8736 27.935 15.7672 26.6048 15.5434C26.0539 15.4828 25.5146 15.3431 25.0034 15.1287C22.42 14.1784 22.7754 11.9767 22.7754 9.74203L22.7864 9.709Z" fill="white"/>
<path fill-rule="evenodd" clip-rule="evenodd" d="M89.8205 12.7145L82.9753 12.6925C82.6088 12.6522 82.4769 12.4247 82.2864 12.1421C81.744 12.1641 81.9199 12.3439 81.5022 12.388L78.7538 12.1715C75.7819 11.6908 71.4249 12.6742 67.5698 12.1715C66.4412 12.021 65.0597 11.9403 63.9237 11.8816C62.729 11.8229 61.3585 11.7275 60.2335 11.5807C58.863 11.4046 56.2942 11.3605 54.7735 11.0963C54.0845 10.9789 53.5898 11.155 53.2124 10.711C53.1611 10.157 53.315 9.80102 53.0548 9.2873C52.7947 8.77358 52.0544 7.91127 51.1969 7.88558C50.7022 7.83771 50.2029 7.89396 49.7312 8.0507C49.2914 8.23418 48.2434 9.06713 48.1591 9.74965C48.1434 10.2253 48.227 10.6989 48.4046 11.1404C48.9579 13.2576 50.4421 12.043 51.6293 12.7109C52.8166 13.3787 53.0475 13.0374 54.2604 13.3383C55.9205 13.7493 58.8264 13.7053 60.6989 13.7053C61.3292 13.7053 61.8972 13.775 62.5312 13.7677C63.1651 13.7603 63.876 13.742 64.521 13.7677C65.1659 13.7933 66.1114 14.1052 67.0275 14.1346C67.9436 14.164 67.229 13.5071 68.2294 14.0502C69.6952 14.8465 72.4033 14.5676 74.3784 14.5713C76.0787 14.5713 79.3731 14.6703 80.9452 15.0299C81.8393 15.2354 81.4582 15.8299 83.0009 15.4299C83.8767 15.2024 93.3494 15.3198 95.1267 15.3382C95.8596 15.3382 96.7904 15.0776 96.816 15.9106L96.7977 21.9578C96.7977 24.2035 96.7024 29.737 97.1385 31.4212C97.8164 34.0412 97.0908 33.821 97.1055 34.8521C97.1055 35.3071 97.1055 35.7989 97.1385 36.2539L97.6075 41.1305C97.7358 41.8314 98.0876 43.5854 98.7399 43.9009C99.1477 44.0028 99.5743 44.0028 99.9821 43.9009C101.111 43.4789 100.697 40.5251 100.623 39.3729C100.568 38.4885 100.561 37.6299 100.517 36.7566C100.393 34.3311 100.151 31.6194 100.044 29.0948C99.9565 26.8932 99.7439 25.308 99.7403 22.9045L99.7219 15.4556C99.7549 14.9199 100.283 14.685 100.766 14.5456C101.656 14.2148 102.516 13.811 103.339 13.3383C103.559 13.1989 103.771 13.1549 103.991 13.0338C104.211 12.9127 104.317 12.8136 104.581 12.6668C105.761 11.9705 106.818 11.0841 107.71 10.0432C108.015 9.69657 108.294 9.3287 108.546 8.94237C109.418 7.59683 109.851 6.01325 109.785 4.41064C109.764 3.39254 109.359 2.41998 108.652 1.68793C106.864 -0.0880661 106.534 0.0183471 104.533 0C103.416 0 102.701 0.627471 101.763 1.07881C100.825 1.53015 99.3005 2.81077 98.7362 3.78684C97.5965 5.75365 97.5123 5.57752 97.1861 8.04704C97.0285 9.22125 97.2448 8.78092 97.4097 9.60287C97.6149 10.645 96.794 12.953 95.1926 13.1035C94.5001 13.1659 94.1226 12.9347 93.4997 12.8833C92.2098 12.7806 91.1764 12.7182 89.8352 12.7145M104.383 2.33375C105.255 2.10625 105.482 2.2677 106.018 2.74473C106.43 3.07495 106.766 3.49052 107.003 3.96297C107.45 4.83996 107.003 6.93887 106.695 7.77183C106.388 8.60479 105.31 9.70561 104.662 10.2303C103.848 10.8835 101.048 12.5384 99.9968 12.2852C99.3885 12.1384 99.3079 11.5513 99.3812 10.8174C99.6413 8.36994 99.7476 5.87474 101.452 3.90793C101.985 3.28334 102.669 2.8048 103.438 2.51722C103.764 2.41081 104.039 2.41815 104.368 2.33375H104.383Z" fill="white"/>
<path fill-rule="evenodd" clip-rule="evenodd" d="M150.724 32.6578C150.724 31.3332 150.662 30.3571 151.091 29.2489C151.864 27.2417 152.795 26.3354 154.367 25.0878C155.711 24.02 156.071 24.2622 155.499 23.0329C155.235 22.4678 154.685 22.622 154.106 22.7724C152.751 23.121 151.468 23.642 150.464 24.6401C148.602 26.4748 147.822 28.049 146.869 30.4121C146.701 30.8341 146.536 31.3075 146.374 31.7368C145.949 32.878 147.247 36.4043 147.694 37.6079C148.011 38.4568 148.465 39.2478 149.038 39.9489C150.16 41.3323 151.446 42.5506 154.055 42.3671C155.554 42.2699 157.01 41.8225 158.306 41.0608C158.672 40.8369 158.955 40.5324 159.347 40.2535C160.047 39.7048 160.664 39.0572 161.179 38.3307C161.725 37.6373 162.216 36.901 162.645 36.1291L163.861 33.6045C164 33.0365 164.026 32.4469 163.938 31.8689C163.88 31.4579 163.601 31.0653 163.444 30.5479C163.372 30.3177 163.266 30.0999 163.128 29.9021C162.989 29.6379 162.989 29.4654 162.857 29.2159L161.864 27.4142C161.336 26.64 160.05 24.0824 158.672 24.1117C158.424 24.0921 158.178 24.1671 157.983 24.3216C157.788 24.476 157.659 24.6986 157.621 24.9447C157.71 25.4416 157.832 25.932 157.987 26.4125C158.119 26.9299 158.284 27.2895 158.416 27.8802C158.548 28.471 158.746 28.6435 158.837 29.2746C158.947 30.0085 159.123 30.1443 159.244 30.713C159.353 31.2765 159.411 31.8489 159.416 32.423C159.416 34.5439 159.094 34.4228 158.867 35.6447C158.644 36.5759 158.295 37.4722 157.83 38.3087C157.196 39.4976 156.507 39.6114 155.418 39.604C153.645 39.604 152.201 40.0333 151.45 38.0042L151.047 36.5364C150.757 35.2538 150.633 33.939 150.68 32.6248" fill="white"/>
<path fill-rule="evenodd" clip-rule="evenodd" d="M141.94 16.0057C142.391 14.7764 140.808 14.659 140.056 15.0223C138.565 15.7562 136.359 19.8732 135.633 21.7263C135.48 22.1189 135.23 22.5519 135.135 22.8638L134.267 25.1572C133.937 26.2947 133.006 29.2193 132.823 30.0522L131.522 35.1637C131.394 35.6004 131.364 36.0554 131.24 36.4957C131.115 36.936 131.027 37.281 130.943 37.7176C130.423 40.3743 130.862 40.1468 131.822 41.3614C132.698 42.4622 132.229 42.5392 135.263 42.0072C136.092 41.8592 136.896 41.5962 137.653 41.2256C138.58 40.8293 138.968 40.2899 138.844 39.2111C138.635 37.3764 136.586 39.2111 135.333 38.5763C134.868 38.3378 134.798 38.1653 134.93 37.5855C135.04 37.1085 135.025 36.6535 135.124 36.1801C135.208 35.7618 135.34 35.3692 135.432 34.9142C135.523 34.4592 135.523 33.9675 135.633 33.5051C135.761 33.1061 135.867 32.7007 135.952 32.2906C136.232 30.5413 136.673 28.8217 137.268 27.1534C137.598 26.225 137.898 25.5645 138.822 25.5682C140.093 25.5682 144.146 25.6783 145.102 25.4434C146.642 25.0765 146.627 25.6086 146.623 23.7885C146.623 23.2381 146.649 22.8161 146.374 22.4162C146.008 21.8657 145.817 22.0492 145.22 22.1263L141.046 22.7574C140.836 22.8291 140.613 22.8547 140.392 22.8326C140.172 22.8104 139.958 22.741 139.767 22.629C139.17 22.3391 139.503 22.0235 139.642 21.5722L141.68 16.5121C141.78 16.353 141.867 16.1861 141.94 16.013" fill="white"/>
<path fill-rule="evenodd" clip-rule="evenodd" d="M92.3009 27.7229C92.5757 27.011 92.3559 26.057 92.2276 25.3635C92.0187 24.237 90.8717 22.7031 89.8933 22.538C89.0599 22.4847 88.2239 22.4847 87.3905 22.538C84.873 22.7729 82.7476 24.8828 81.4394 26.7872C81.0106 27.4147 79.314 30.0897 79.1454 30.7502C79.0682 31.139 79.0447 31.5365 79.0758 31.9317C79.0758 33.1683 79.1014 33.0326 79.5595 33.9462C80.6397 36.1367 82.146 38.0891 83.9899 39.6889C84.9328 40.484 85.9362 41.2041 86.9911 41.8428C87.8595 42.3896 87.8376 42.3932 89.0102 42.3822C89.9959 42.3822 90.421 42.3822 90.7911 41.6483C91.077 41.0759 91.4764 40.6209 91.3408 39.6669C91.2455 38.9954 90.5346 38.9917 89.875 38.6211C89.5525 38.4303 87.8302 37.6744 87.3502 37.3221C86.6942 36.8341 85.921 36.4561 85.0819 35.7626C84.5359 35.3076 83.191 34.1004 84.349 33.693C84.7557 33.5499 84.8107 33.4252 85.1955 33.2674C86.8903 32.5209 88.4957 31.5854 89.9813 30.4786C91.0806 29.5613 91.7842 29.0109 92.2826 27.7192M86.4451 25.5176C87.035 25.3121 87.8742 25.8845 88.3542 26.134C88.739 26.3505 89.0358 26.3138 88.9186 26.9523C88.7793 27.7082 87.669 28.754 87.0863 29.2017L84.6495 30.8786C84.261 30.9924 84.0118 30.6805 83.737 30.5117C83.213 30.1741 83.6234 29.9466 83.7627 29.6127C83.9468 28.9278 84.1921 28.261 84.4956 27.6202C85.0159 26.7872 85.3274 25.9286 86.4817 25.5286L86.4451 25.5176Z" fill="white"/>
<path fill-rule="evenodd" clip-rule="evenodd" d="M116.941 27.5207C117.308 27.3189 117.744 27.7482 118.041 27.9684C118.876 28.6215 118.729 29.1609 118.935 29.7224L119.602 31.6341C119.766 32.0965 119.854 32.4928 120.034 32.9661L121.837 38.1804C122.093 38.6501 122.39 39.5711 122.599 40.0628C122.735 40.3747 122.812 40.3637 122.907 40.6352C123.409 42.0663 123.6 42.3965 124.622 42.4039C125.531 42.4039 125.721 42.1544 126.454 41.637C126.681 41.4755 126.821 41.3801 126.626 41.0645C126.26 40.4958 126.363 41.226 126.099 39.9013C126.039 39.679 125.962 39.4618 125.868 39.2519C125.802 39.028 125.773 38.7051 125.729 38.518C125.604 37.9235 125.41 37.6997 125.322 37.1566C125.087 35.7659 125.208 36.6356 124.922 35.7916C124.825 35.3314 124.703 34.8769 124.556 34.4302C124.376 34.0156 124.314 33.5349 124.16 33.0836C124.006 32.6322 123.915 32.1772 123.742 31.7332C123.255 30.4966 122.955 29.1243 122.394 27.8473C122.288 27.6088 122.178 27.5097 122.086 27.2675C121.849 26.653 121.551 26.0641 121.196 25.5099C120.628 24.4788 119.997 23.2018 118.909 22.6257C117.821 22.0496 117.106 22.5193 116.556 23.1981C115.409 24.6182 114.548 25.675 113.5 27.1391L110.616 31.2488C109.957 32.1075 109.44 33.0579 108.868 33.9202L108.102 34.9183C107.985 35.0834 107.905 35.2265 107.776 35.4063C106.842 36.72 106.01 38.2354 105.024 39.5748C104.632 40.1105 105.087 40.3674 105.343 40.7526C105.457 40.9476 105.616 41.1117 105.808 41.2307C106 41.3497 106.217 41.4199 106.442 41.4352C108.187 41.5232 107.78 41.1196 108.135 40.4591C108.254 40.3053 108.362 40.1434 108.458 39.9747L109.957 37.0392C110.481 35.9787 113.086 32.1992 113.779 31.2892C114.072 30.9223 114.233 30.6471 114.512 30.2618C114.79 29.8765 115.065 29.6416 115.299 29.3554C115.717 28.8894 116.45 27.7776 116.941 27.5207Z" fill="white"/>
<path fill-rule="evenodd" clip-rule="evenodd" d="M75.8077 25.5098C75.8906 25.3079 75.9129 25.0862 75.8719 24.8718C75.8309 24.6573 75.7284 24.4596 75.5769 24.3026C74.734 23.1137 74.2027 23.4623 73.4698 24.02C72.004 25.1209 72.2862 24.7723 72.1323 25.9905C72.0626 26.5373 71.971 26.8785 71.8867 27.3776C71.8025 27.8766 71.7841 28.383 71.7035 28.8453L71.1245 31.6194C70.9615 32.051 70.8508 32.5007 70.7947 32.9587C70.7104 33.4725 70.5162 33.7587 70.41 34.2577C70.0984 35.5295 69.6842 36.7739 69.1714 37.9785C68.9185 38.4005 68.7353 38.7124 68.5228 39.0243C68.3102 39.3362 68.0903 39.7582 67.5736 39.3032C66.7262 38.4215 65.9947 37.435 65.397 36.3676C65.1734 35.964 65.2027 35.5714 65.1368 35.0466C65.0708 34.5219 64.8913 34.133 64.7996 33.6486C64.7227 33.2303 64.719 32.5955 64.6091 32.2249C64.4332 31.6377 64.3086 31.6891 64.2426 30.9296C64.2053 30.4773 64.0926 30.0345 63.9092 29.6196C63.7699 29.1829 63.7773 28.6545 63.638 28.1958C63.4988 27.7777 63.3862 27.3512 63.3009 26.9189C63.2093 26.4639 63.026 26.0676 62.9051 25.5942C62.6742 24.6952 62.0549 22.5449 61.0472 22.5413C60.4829 22.5413 59.3176 23.4036 58.9475 23.7448C58.123 24.5117 58.5334 25.4584 58.7056 26.4015C58.9108 27.5463 60.5708 31.6744 61.0839 33.1642C61.2742 33.5542 61.4418 33.9548 61.5859 34.3641C61.6675 34.5441 61.7593 34.7193 61.8607 34.8889C61.9256 35.1143 62.0027 35.336 62.0916 35.553C62.1955 35.7225 62.2873 35.899 62.3664 36.0814C63.0993 37.9161 64.8363 41.248 66.3167 42.0883C67.4747 42.7414 67.9438 42.1873 68.7646 41.6883C69.1246 41.4909 69.4744 41.2753 69.8126 41.0425C70.3953 40.6095 71.4836 38.7564 71.7988 38.0849L72.3228 36.9107C72.5317 36.4997 72.6013 36.2282 72.7992 35.7769C73.2942 34.5401 73.7091 33.2728 74.0415 31.9827C74.1184 31.5203 74.3603 31.2892 74.4555 30.7901C74.723 29.4288 74.6717 30.1039 74.844 29.4911C74.9906 28.9848 74.9832 28.6765 75.1518 28.1812C75.3094 27.7362 75.4151 27.2744 75.4669 26.8051C75.5329 26.3648 75.6868 25.9428 75.8004 25.4768" fill="white"/>
<path fill-rule="evenodd" clip-rule="evenodd" d="M47.8621 25.1426C47.9427 25.3737 49.1043 26.3425 49.4744 27.091C49.716 27.4882 49.8755 27.93 49.9435 28.39C50.0145 28.9251 50.0354 29.4656 50.0058 30.0046C50.0058 31.6485 50.1414 35.4353 49.7603 36.7489C49.6283 37.2003 49.5441 37.7103 49.3938 38.1727C49.3293 38.3816 49.2408 38.5823 49.13 38.7708C49.0279 38.9707 48.9409 39.178 48.8698 39.3909C48.6902 39.8202 48.2542 40.1432 48.3165 40.6018C48.3531 40.8624 49.1226 42.1687 50.0424 42.3778C51.6951 42.7448 52.5746 41.9412 53.2122 40.3597C53.4467 39.7725 53.1646 37.9048 52.985 37.2847C52.7468 36.4737 52.8531 36.6572 53.007 35.8609L53.6043 31.1898C53.6996 30.1697 53.9414 29.245 53.9964 28.1478C54.0514 27.0507 54.3042 25.8141 53.9451 24.9444C53.8462 24.7022 53.7619 24.6252 53.6409 24.361C53.4028 23.8399 53.0546 22.9189 52.5856 22.8198C52.2631 22.7501 51.4862 22.9996 51.0465 23.0437C50.167 23.1354 47.4919 24.0601 47.8621 25.1279" fill="white"/>
</svg>
